<svg width="756" height="96" viewBox="0 0 756 96" fill="none" xmlns="http://www.w3.org/2000/svg">
<path d="M24 84V72H12V60H0V24H12V12H24V0H72V12H84V24H60V12H36V24H24V60H36V72H60V60H84V72H72V84H24ZM120 84V72H108V60H96V24H108V12H120V0H168V12H180V24H156V12H132V24H120V60H132V72H156V60H180V72H168V84H120ZM192 96V84H276V96H192ZM312 84V72H300V60H288V24H300V12H312V0H372V12H324V24H312V60H324V72H348V48H336V36H372V84H312ZM396 84V72H384V60H396V48H444V36H396V24H456V36H468V84H396ZM408 72H444V60H408V72ZM480 84V24H552V36H564V84H540V36H528V84H504V36H492V84H480ZM588 84V72H576V36H588V24H648V36H660V60H600V72H648V84H588ZM600 48H636V36H600V48ZM672 84V72H732V60H684V48H672V36H684V24H744V36H696V48H744V60H756V72H744V84H672Z" fill="#F2D437"/>
</svg>
